<svg xmlns="http://www.w3.org/2000/svg" viewBox="0 0 100 130">
  <defs>
    <linearGradient id="b" x1="0" y1="0" x2="1" y2="0">
      <stop offset="0%"   stop-color="#111"/>
      <stop offset="38%"  stop-color="#2e2e2e"/>
      <stop offset="70%"  stop-color="#1e1e1e"/>
      <stop offset="100%" stop-color="#0a0a0a"/>
    </linearGradient>
    <linearGradient id="r" x1="0" y1="0" x2="1" y2="0">
      <stop offset="0%"   stop-color="#222"/>
      <stop offset="50%"  stop-color="#484848"/>
      <stop offset="100%" stop-color="#181818"/>
    </linearGradient>
    <linearGradient id="sh" x1="0" y1="0" x2="0" y2="1">
      <stop offset="0%"   stop-color="#000" stop-opacity="0"/>
      <stop offset="100%" stop-color="#000" stop-opacity="0.2"/>
    </linearGradient>
  </defs>
  <ellipse cx="50" cy="122" rx="38" ry="6" fill="#000" opacity="0.12"/>
  <path d="M21 30 L11 113 Q11 118 16 118 L84 118 Q89 118 89 113 L79 30 Z" fill="url(#b)"/>
  <path d="M21 30 L11 113 Q11 118 16 118 L84 118 Q89 118 89 113 L79 30 Z" fill="url(#sh)"/>
  <path d="M23 30 L14 114 L30 114 L37 30 Z" fill="white" opacity="0.055"/>
  <path d="M14 73 Q50 75 86 73" stroke="#252525" stroke-width="1.5" fill="none"/>
  <ellipse cx="50" cy="30" rx="29" ry="8.5" fill="url(#r)"/>
  <ellipse cx="50" cy="27" rx="26" ry="6"   fill="#3e3e3e"/>
  <ellipse cx="50" cy="33" rx="22" ry="4.5" fill="#050505" opacity="0.92"/>
  <text x="50" y="101" text-anchor="middle" fill="#282828"
        font-size="12" font-family="'Helvetica Neue',Arial,sans-serif"
        font-weight="900" letter-spacing="2">PQ</text>
</svg>
