<svg xmlns="http://www.w3.org/2000/svg" viewBox="0 0 100 130">
  <defs>
    <linearGradient id="wc" x1="0" y1="0" x2="1" y2="1">
      <stop offset="0%"   stop-color="#F0C030"/>
      <stop offset="45%"  stop-color="#C8900C"/>
      <stop offset="100%" stop-color="#8A5C06"/>
    </linearGradient>
    <linearGradient id="wr" x1="0" y1="0" x2="1" y2="0">
      <stop offset="0%"   stop-color="#9A6A08"/>
      <stop offset="50%"  stop-color="#E0B020"/>
      <stop offset="100%" stop-color="#8A5A06"/>
    </linearGradient>
    <clipPath id="cc">
      <path d="M18 28 L8 118 Q8 122 13 122 L87 122 Q92 122 92 118 L82 28 Z"/>
    </clipPath>
  </defs>
  <path d="M18 28 L8 118 Q8 122 13 122 L87 122 Q92 122 92 118 L82 28 Z" fill="url(#wc)"/>
  <g clip-path="url(#cc)" stroke="#7A4E04" stroke-width="1.3" opacity="0.55" fill="none">
    <line x1="5"  y1="46"  x2="95" y2="46"/>
    <line x1="5"  y1="62"  x2="95" y2="62"/>
    <line x1="5"  y1="78"  x2="95" y2="78"/>
    <line x1="5"  y1="94"  x2="95" y2="94"/>
    <line x1="5"  y1="110" x2="95" y2="110"/>
    <line x1="18" y1="26"  x2="4"  y2="124"/>
    <line x1="34" y1="26"  x2="22" y2="124"/>
    <line x1="50" y1="26"  x2="40" y2="124"/>
    <line x1="66" y1="26"  x2="58" y2="124"/>
    <line x1="82" y1="26"  x2="76" y2="124"/>
  </g>
  <path d="M20 28 L10 118 L25 118 L33 28 Z" fill="white" opacity="0.07" clip-path="url(#cc)"/>
  <ellipse cx="50" cy="28" rx="32" ry="10"  fill="url(#wr)"/>
  <ellipse cx="50" cy="25" rx="28" ry="7"   fill="#D0A814"/>
  <ellipse cx="50" cy="32" rx="24" ry="4.5" fill="#5C3A04" opacity="0.9"/>
  <ellipse cx="50" cy="122" rx="40" ry="5"  fill="#5C3A04" opacity="0.25"/>
</svg>
