<svg xmlns="http://www.w3.org/2000/svg" viewBox="0 0 100 100">
  <rect x="8" y="75" width="84" height="14" rx="4" fill="#C8905A"/>
  <rect x="8" y="32" width="84" height="44" fill="#FFF0C0"/>
  <rect x="8" y="26" width="84" height="10" rx="5" fill="#FFFAE0"/>
  <path d="M8 26 Q30 21 50 26 Q70 31 92 26" stroke="#F5DCA0" stroke-width="3" fill="none"/>
  <path d="M50 18 C44 18 38 22 38 28 C38 34 44 37 50 37 C56 37 62 34 62 28 C62 22 56 18 50 18Z" fill="#E8204A"/>
  <ellipse cx="50" cy="26" rx="4" ry="2" fill="#C01830"/>
  <path d="M46 18 C44 12 40 10 43 8 C46 7 48 12 50 18" fill="#2A8000"/>
  <path d="M54 18 C56 12 60 10 57 8 C54 7 52 12 50 18" fill="#2A8000"/>
</svg>
