<svg xmlns="http://www.w3.org/2000/svg" viewBox="0 0 100 100">
  <path d="M50 92 C28 78 12 60 14 38 C16 20 30 15 42 24 C45 12 55 12 58 24 C70 15 84 20 86 38 C88 60 72 78 50 92Z" fill="#E8204A"/>
  <ellipse cx="36" cy="44" rx="3" ry="4" fill="#FFD0A0" transform="rotate(-12 36 44)"/>
  <ellipse cx="52" cy="36" rx="3" ry="4" fill="#FFD0A0"/>
  <ellipse cx="66" cy="44" rx="3" ry="4" fill="#FFD0A0" transform="rotate(12 66 44)"/>
  <ellipse cx="39" cy="61" rx="3" ry="4" fill="#FFD0A0" transform="rotate(-6 39 61)"/>
  <ellipse cx="61" cy="61" rx="3" ry="4" fill="#FFD0A0" transform="rotate(6 61 61)"/>
  <ellipse cx="50" cy="72" rx="3" ry="4" fill="#FFD0A0"/>
  <path d="M42 24 C38 14 32 10 35 6 C38 3 42 9 42 24Z" fill="#2A8000"/>
  <path d="M50 20 C50 10 47 5 50 3 C53 5 50 10 50 20Z" fill="#3A9000"/>
  <path d="M58 24 C62 14 68 10 65 6 C62 3 58 9 58 24Z" fill="#2A8000"/>
</svg>
