<svg xmlns="http://www.w3.org/2000/svg" viewBox="0 0 100 100">
  <!-- Warm yellow background circle -->
  <circle cx="50" cy="50" r="47" fill="#FFF0A0"/>
  <circle cx="50" cy="50" r="47" fill="none" stroke="#E8D060" stroke-width="2" opacity="0.45"/>

  <!-- Pod 1 – back, left-tilted -->
  <g transform="rotate(-28 50 55)">
    <path d="M47 10 C49 7 53 7 55 10 L58 82 C56 88 44 88 42 82 Z" fill="#4A2C00"/>
    <path d="M48.5 13 L46 76" stroke="white" stroke-width="1.5" opacity="0.1"
          fill="none" stroke-linecap="round"/>
    <line x1="50" y1="12" x2="50" y2="80" stroke="#2A1400" stroke-width="0.8" opacity="0.3"/>
    <circle cx="50" cy="28" r="0.9" fill="#6A4020" opacity="0.75"/>
    <circle cx="50" cy="38" r="0.9" fill="#6A4020" opacity="0.75"/>
    <circle cx="50" cy="48" r="0.9" fill="#6A4020" opacity="0.75"/>
    <circle cx="50" cy="58" r="0.9" fill="#6A4020" opacity="0.75"/>
    <circle cx="50" cy="68" r="0.9" fill="#6A4020" opacity="0.75"/>
    <path d="M47 82 C47 88 53 88 53 82" fill="#3A1A00"/>
    <path d="M48 10 C44 4 41 0 39 2" stroke="#3A1A00" stroke-width="2" fill="none" stroke-linecap="round"/>
    <path d="M52 10 C56 4 59 0 61 2" stroke="#3A1A00" stroke-width="2" fill="none" stroke-linecap="round"/>
  </g>

  <!-- Pod 2 – front, right-tilted -->
  <g transform="rotate(22 50 55)">
    <path d="M45 12 C47 9 55 9 57 12 L60 84 C58 90 44 90 42 84 Z" fill="#5C3800"/>
    <path d="M46.5 15 L44 80" stroke="white" stroke-width="1.5" opacity="0.1"
          fill="none" stroke-linecap="round"/>
    <line x1="50" y1="14" x2="50" y2="82" stroke="#3A2000" stroke-width="0.8" opacity="0.3"/>
    <circle cx="50" cy="30" r="0.9" fill="#7A5030" opacity="0.7"/>
    <circle cx="50" cy="40" r="0.9" fill="#7A5030" opacity="0.7"/>
    <circle cx="50" cy="50" r="0.9" fill="#7A5030" opacity="0.7"/>
    <circle cx="50" cy="60" r="0.9" fill="#7A5030" opacity="0.7"/>
    <circle cx="50" cy="70" r="0.9" fill="#7A5030" opacity="0.7"/>
    <path d="M44 84 C44 90 56 90 56 84" fill="#4A2800"/>
    <path d="M46 12 C42 6 39 2 37 4" stroke="#4A2800" stroke-width="2" fill="none" stroke-linecap="round"/>
    <path d="M54 12 C58 6 61 2 63 4" stroke="#4A2800" stroke-width="2" fill="none" stroke-linecap="round"/>
  </g>

  <!-- Fragrance dots -->
  <circle cx="16" cy="24" r="2.5" fill="#D4A030" opacity="0.4"/>
  <circle cx="83" cy="18" r="2"   fill="#D4A030" opacity="0.35"/>
  <circle cx="86" cy="73" r="2.5" fill="#D4A030" opacity="0.3"/>
  <circle cx="12" cy="75" r="2"   fill="#D4A030" opacity="0.3"/>
</svg>
