<svg xmlns="http://www.w3.org/2000/svg" viewBox="0 0 100 100">
  <path d="M38 85 C36 70 35 45 37 20 C38 16 40 14 42 14 C44 14 46 16 47 20 C49 45 48 70 46 85 Z" fill="#8B6914"/>
  <path d="M55 82 C53 67 52 44 54 22 C55 18 57 16 59 16 C61 16 63 18 64 22 C66 44 65 67 63 82 Z" fill="#A07820"/>
  <ellipse cx="42" cy="14" rx="5" ry="7" fill="#C8A030" transform="rotate(8 42 14)"/>
  <ellipse cx="59" cy="16" rx="5" ry="7" fill="#B89028" transform="rotate(-5 59 16)"/>
  <circle cx="42" cy="38" r="1.8" fill="#5A3C00"/>
  <circle cx="42" cy="54" r="1.8" fill="#5A3C00"/>
  <circle cx="42" cy="70" r="1.8" fill="#5A3C00"/>
  <circle cx="59" cy="42" r="1.8" fill="#5A3C00"/>
  <circle cx="59" cy="60" r="1.8" fill="#5A3C00"/>
</svg>
